<?xml version="1.0" encoding="utf-8"?>
<!-- Generator: Adobe Illustrator 21.1.0, SVG Export Plug-In . SVG Version: 6.00 Build 0)  -->
<svg version="1.1" id="Layer_1" xmlns="http://www.w3.org/2000/svg" xmlns:xlink="http://www.w3.org/1999/xlink" x="0px" y="0px"
	 viewBox="0 0 51.7 51.7" style="enable-background:new 0 0 51.7 51.7;" xml:space="preserve">
<style type="text/css">
	.st0{fill:#ED1C24;}
	.st1{fill:#231F20;}
</style>
<title>How-to-prepare_Step 1.2</title>
<g>
	<circle class="st0" cx="22.7" cy="16.4" r="2.2"/>
	<path d="M34.5,17.5h-2.7c0.1,0.1,0.1,0.3,0.1,0.4c0,0.5-0.5,0.9-1,0.8c-0.4,0-0.8-0.4-0.8-0.8c0-0.1,0.1-0.3,0.1-0.4h-1.9
		C28,17.9,27.5,18,27,17.8c-0.1-0.1-0.2-0.2-0.3-0.3h-1.4c-0.9,1-2.4,1.2-3.4,0.3c-0.1-0.1-0.2-0.2-0.3-0.3h-3.9
		c0,2.5,3.5,4.5,8.7,4.5c2.8-0.1,5.6-0.9,8-2.2c2.5-1.2,5.1-2.2,7.7-2.9c1.1-0.3,2.3-0.6,3.4-0.8c0.3,0,0.6-0.1,0.9-0.1
		c0-0.4,0-0.8-0.1-1.2c-3.2,0.4-6.4,1.1-9.5,2L34.5,17.5z"/>
	<path class="st1" d="M21.2,11.2c-0.6,0-1.2-0.2-1.6-0.5c0,0,0-0.1,0-0.2l0,0L20,9.9c0-0.1,0.1-0.1,0.2,0c0.3,0.2,0.6,0.3,0.9,0.3
		c0.4,0,0.6-0.2,0.6-0.6c0-0.3-0.2-0.4-0.6-0.4c-0.2,0-0.4,0.1-0.6,0.2c0,0-0.1,0-0.2,0l-0.5-0.2c-0.1,0-0.1-0.1-0.1-0.1l0.1-2.2
		c0-0.1,0.1-0.1,0.1-0.1l0,0h2.5c0.1,0,0.1,0,0.1,0.1l0,0v0.8c0,0.1,0,0.1-0.1,0.1l0,0h-1.6v0.7c0.2-0.1,0.4-0.2,0.6-0.2
		c0.7-0.1,1.4,0.5,1.4,1.2c0,0.1,0,0.1,0,0.2c0,0.9-0.6,1.6-1.5,1.6C21.4,11.2,21.3,11.2,21.2,11.2z"/>
	<path class="st1" d="M23.6,9.8c-0.1,0-0.1,0-0.1-0.1l0,0V8.9c0-0.1,0-0.1,0.1-0.1l0,0h1.6c0.1,0,0.1,0,0.1,0.1l0,0v0.8
		c0,0.1,0,0.1-0.1,0.1l0,0H23.6z"/>
	<path class="st1" d="M26.1,11.1C26,11.1,26,11,26,11l1.3-3.2h-1.7c-0.1,0-0.1,0-0.1-0.1l0,0V6.8c0-0.1,0-0.1,0.1-0.1l0,0h2.9
		c0.1,0,0.1,0,0.1,0.1l0,0v0.7c0,0.1,0,0.1,0,0.2L27.2,11c0,0.1-0.1,0.1-0.1,0.1H26.1z"/>
	<path class="st1" d="M31.6,12.4c-0.4,0-0.9-0.1-1.3-0.3c-0.1,0-0.1-0.1,0-0.2l0,0l0.4-0.6c0-0.1,0.1-0.1,0.1-0.1l0,0
		c0.2,0.1,0.4,0.1,0.7,0.2c0.3,0,0.5-0.1,0.5-0.4c-0.2,0-0.3,0.1-0.5,0.1c-0.7,0.1-1.3-0.5-1.4-1.2c0-0.1,0-0.1,0-0.2V9.2
		c0-0.8,0.5-1.4,1.3-1.5c0.1,0,0.2,0,0.2,0c0.5,0,0.9,0.1,1.3,0.3C33,8,33,8.1,33,8.1v2.6C33.2,11.9,32.7,12.4,31.6,12.4z
		 M31.7,10.1c0.1,0,0.2,0,0.3-0.1V8.8c-0.1,0-0.2-0.1-0.3-0.1c-0.3,0-0.4,0.1-0.4,0.4v0.5C31.4,10,31.5,10.1,31.7,10.1z"/>
	<path class="st0" d="M25.8,0C11.6,0,0,11.6,0,25.8s11.6,25.8,25.8,25.8S51.6,40,51.6,25.8l0,0C51.7,11.6,40.1,0,25.8,0z M25.8,48.3
		c-12.4,0-22.4-10-22.4-22.4s10-22.4,22.4-22.4s22.4,10,22.4,22.4C48.3,38.2,38.2,48.3,25.8,48.3z"/>
	<path class="st0" d="M38.2,24.8c0-0.2-0.2-0.4-0.4-0.4H13.9c-0.2,0-0.4,0.2-0.5,0.4c-0.2,0.8-0.3,1.7-0.3,2.6
		c0,7,5.7,12.7,12.7,12.7s12.7-5.7,12.7-12.7C38.5,26.6,38.4,25.7,38.2,24.8z M26.9,35.9c0,0.1-0.1,0.2-0.1,0.2l0,0h-1.3
		c-0.1,0-0.2-0.1-0.2-0.1l0,0v-5.5l-0.9,0.7c-0.1,0.1-0.2,0.1-0.2,0l0,0l-0.6-0.9c-0.1-0.1,0-0.2,0-0.2l0,0l1.9-1.3
		c0.1-0.1,0.2-0.1,0.2-0.1h1.1c0.1,0,0.2,0.1,0.2,0.2L26.9,35.9z"/>
	<path class="st0" d="M13.7,40.5h24.2c0.3,0,0.6,0.3,0.6,0.6v0.6c0,0.3-0.3,0.6-0.6,0.6H13.7c-0.3,0-0.6-0.3-0.6-0.6v-0.6
		C13.2,40.8,13.4,40.5,13.7,40.5z"/>
	<polygon points="21.1,17.5 32.4,17.5 32.2,19.2 23.4,19.7 19.5,17.5 	"/>
	<path d="M26.2,13.2c-0.6,0-1.1,0.5-1.1,1.1s0.5,1.1,1.1,1.1s1.1-0.5,1.1-1.1C27.3,13.7,26.8,13.2,26.2,13.2L26.2,13.2z"/>
	<path class="st0" d="M27.6,17c-0.1-0.6-0.6-1.1-1.2-1c-0.5,0-1,0.5-1,1c0,0.2,0.1,0.4,0.2,0.5h1.9C27.6,17.3,27.6,17.2,27.6,17z"/>
	<path class="st0" d="M28.3,13.2c0-0.3-0.2-0.6-0.5-0.6s-0.6,0.2-0.6,0.5s0.2,0.6,0.5,0.6l0,0C28,13.7,28.3,13.5,28.3,13.2z"/>
	<path d="M28.9,14.9c-0.6,0-1,0.5-1,1.1s0.5,1,1.1,1s1-0.5,1-1.1C30,15.3,29.5,14.8,28.9,14.9z"/>
	<path d="M24.6,16c-0.3,0-0.5,0.2-0.5,0.5s0.2,0.5,0.5,0.5s0.5-0.2,0.5-0.5S24.9,16,24.6,16L24.6,16z"/>
	<path d="M28.2,14.6c-0.3,0-0.5,0.2-0.5,0.5s0.2,0.5,0.5,0.5s0.5-0.2,0.5-0.5S28.5,14.6,28.2,14.6L28.2,14.6z"/>
</g>
</svg>
